<svg enable-background="new 0 0 228.728 228.728" viewBox="0 0 228.728 228.728" xmlns="http://www.w3.org/2000/svg"><g fill="#010002"><path d="m192.876 130.009c-1.457-11.216-6.61-19.469-14.509-23.22-1.593-.759-3.307-1.324-5.075-1.689.512-6.392.777-11.674.777-15.289v-3.547h-138.626v3.547c0 23.127 9.387 123.757 29.193 138.233l.931.684h76.029l.952-.676c5.565-4.087 10.89-15.02 15.801-32.517 11.012-5.089 21.459-16.291 27.987-29.987 5.639-11.886 7.965-24.509 6.54-35.539zm-124.876 91.629c-14.451-13.346-24.415-96.289-25.406-128.295h124.329c-.963 31.211-12.873 114.606-27.74 128.295zm104.667-109.362c1.02.243 1.882.537 2.663.909 6.005 2.86 9.817 9.488 10.751 18.685.959 9.402-1.235 20.278-6.159 30.624-4.656 9.806-11.56 18.277-19.072 23.481 5.829-24.129 9.902-53.626 11.817-73.699z"/><path d="m92.336 35.721c3.636 1.457 5.698 3.443 6.317 6.07 1.428 6.045-4.277 14.519-8.417 19.229l5.293 4.703c12.537-13.972 15.418-30.177-.544-36.579-3.686-1.478-5.766-3.457-6.342-6.048-1.303-5.785 4.323-13.866 8.42-18.282l-5.207-4.814c-12.068 13.016-15.922 29.125.48 35.721z"/><path d="m119.478 46.89c3.636 1.464 5.701 3.45 6.317 6.08 1.428 6.027-4.273 14.516-8.407 19.229l5.282 4.695c5.837-6.349 12.032-17.042 10.035-25.535-2.824-12.014-15.21-9.462-16.914-17.089-1.31-5.791 4.327-13.857 8.414-18.277l-5.193-4.824c-12.969 14.083-15.149 29.455.466 35.721z"/></g></svg>