<svg enable-background="new 0 0 388.024 388.024" height="388.024" viewBox="0 0 388.024 388.024" width="388.024" xmlns="http://www.w3.org/2000/svg"><path d="m262.568 136.421v171.346c0 37.796-30.757 68.547-68.559 68.547s-68.554-30.751-68.554-68.547v-249.946c0-25.422 20.688-46.11 46.11-46.11 25.428 0 46.11 20.688 46.11 46.11v192.834c0 14.523-11.825 26.349-26.349 26.349-14.526 0-26.349-11.825-26.349-26.349v-114.234h-11.71v114.234c0 20.984 17.074 38.059 38.059 38.059 20.116 0 36.589-15.695 37.933-35.475h.126v-195.418c.002-31.881-25.935-57.821-57.819-57.821-31.881 0-57.821 25.94-57.821 57.821v256.899h.352c3.542 41.004 37.999 73.305 79.912 73.305 44.263 0 80.27-36 80.27-80.258v-171.346z" fill="#030303"/></svg>