<svg enable-background="new 0 0 208.204 208.204" viewBox="0 0 208.204 208.204" xmlns="http://www.w3.org/2000/svg"><path d="m83.536 208.204c-.001 0-.001 0-.001 0-4.229 0-8.409-.68-12.425-2.021-12.261-4.094-29.286-12.973-40.765-32.028-21.327-35.397-29.347-88.075-29.425-88.603-.136-.911.368-1.796 1.22-2.145 23.929-9.8 48.852-17.602 74.103-23.198 8.302-31.181 22.638-58.855 22.783-59.135.426-.816 1.358-1.234 2.248-1.018 36.468 8.91 71.785 22.332 104.967 39.892.813.431 1.229 1.361 1.004 2.254-.129.518-13.267 52.157-37.955 85.297-9.42 12.645-22.084 21.476-37.659 26.263-2.078 18.565-10.966 32.37-18.521 41.015-7.457 8.533-18.237 13.427-29.574 13.427zm-78.411-121.694c1.489 8.905 9.77 54.251 28.645 85.58 10.851 18.011 26.983 26.417 38.606 30.298 3.607 1.204 7.361 1.815 11.157 1.815h.002c10.184 0 19.865-4.395 26.563-12.059 8.063-9.227 17.728-24.639 17.979-45.664.439-36.894-15.276-79.747-18.566-88.298-1.94.285-3.879.585-5.815.895-.055.008-.109.015-.163.019-8.373 1.343-16.866 2.955-25.247 4.791-.116.025-.232.04-.348.045-24.796 5.446-49.282 13.039-72.813 22.578zm125.433 35.818c1.176 8.683 1.727 16.804 1.639 24.197-.012.937-.045 1.888-.102 2.891 13.995-4.638 25.42-12.805 33.988-24.306 21.861-29.345 34.532-73.652 36.884-82.366-32.015-16.797-66.013-29.718-101.102-38.422-2.9 5.81-14.055 28.948-21.22 54.935 6.833-1.443 13.754-2.739 20.639-3.865.02-1.677.335-3.348.932-4.918.08-.209.171-.413.264-.614l.074-.164c.306-.681.964-1.135 1.709-1.178l21.811-1.267c.76-.042 1.452.332 1.834.972 2.261 3.791 2.662 8.323 1.1 12.433-1.817 4.781-6.099 8.204-11.056 9.035 2.305 6.981 5.05 16.047 7.521 26.2 4.684 1.907 8.723 5.486 12.631 11.175 1.138 1.656 2.166 3.433 3.058 5.28 5.907 12.261 4.417 21.206 4.351 21.581-.144.811-.771 1.451-1.578 1.612-.808.16-1.631-.19-2.076-.883-.046-.071-4.666-7.221-11.169-12.229-.046-.033-.089-.066-.132-.099zm-.814-5.489c1.18.784 2.315 1.595 3.385 2.419 3.416 2.631 6.309 5.737 8.408 8.28-.363-3.385-1.383-8.066-3.979-13.456-.803-1.664-1.729-3.263-2.751-4.752-2.634-3.834-5.281-6.559-8.141-8.347 1.224 5.443 2.256 10.758 3.078 15.856zm-18.215-62.785c.558.177 1.03.59 1.258 1.155.07.174 1.636 4.077 3.882 10.621 3.838-.4 7.214-2.95 8.601-6.596.984-2.592.885-5.418-.249-7.917l-19.255 1.119c-.242.759-.394 1.532-.455 2.315 1.73-.267 3.461-.524 5.196-.771.094-.013.187-.02.279-.02.26-.016.509.018.743.094zm-31.916 126.031c-4.121 0-8.605-.879-13.709-2.687-2.26-.801-4.497-1.793-6.648-2.95-14.295-7.688-19.11-17.327-19.308-17.734-.36-.74-.229-1.626.329-2.231s1.431-.806 2.199-.506c.096.037 9.702 3.75 19.639 4.028 9.996.277 18-1.854 18.075-1.875.078-.021 8.068-2.235 16.538-7.525 8.432-5.266 14.841-13.328 14.904-13.409.512-.647 1.365-.914 2.153-.675.788.24 1.349.938 1.412 1.759.035.451.757 11.202-7.686 25.064-1.271 2.086-2.699 4.074-4.243 5.908-7.475 8.875-14.771 12.833-23.655 12.833zm-32.826-20.523c2.7 3.195 7.268 7.546 14.364 11.363 1.972 1.06 4.021 1.969 6.089 2.702 4.668 1.654 8.715 2.458 12.374 2.458 7.597 0 13.949-3.519 20.595-11.41 1.414-1.678 2.721-3.499 3.886-5.412 4.192-6.882 5.93-12.945 6.644-17.067-2.851 2.933-7.019 6.757-11.893 9.801-8.995 5.618-17.262 7.899-17.61 7.993-.327.088-8.633 2.31-19.233 2.012-5.745-.16-11.274-1.351-15.216-2.44zm-6.608-27.024c-.349 0-.698-.091-1.011-.274-3.261-1.91-5.601-4.966-6.589-8.605-2.07-7.626 2.449-15.515 10.075-17.586 1.231-.334 2.498-.504 3.763-.504 6.447 0 12.131 4.35 13.823 10.579.052.191.092.383.13.575l.036.174c.167.775-.14 1.576-.783 2.041l-18.271 13.22c-.349.253-.761.38-1.173.38zm6.237-22.968c-.912 0-1.825.123-2.715.364-5.497 1.493-8.755 7.18-7.262 12.677.601 2.21 1.893 4.122 3.692 5.493l16.033-11.601c-1.435-4.117-5.345-6.933-9.748-6.933zm55.343 6.247c-.064 0-.128-.003-.192-.009l-22.448-2.163c-.79-.076-1.46-.612-1.708-1.366l-.059-.173c-.063-.182-.125-.365-.176-.553-2.071-7.628 2.449-15.517 10.074-17.588 1.231-.334 2.497-.504 3.763-.504 6.447 0 12.131 4.35 13.823 10.579.988 3.64.515 7.46-1.332 10.756-.357.633-1.027 1.021-1.745 1.021zm-20.89-6.022 19.699 1.898c.858-2.092 1.006-4.396.406-6.606-1.219-4.49-5.316-7.626-9.962-7.626-.912 0-1.825.123-2.715.364-5.262 1.428-8.472 6.699-7.428 11.97zm77.786-23.537c-1.738 0-3.45-.315-5.089-.938-3.578-1.36-6.412-4.032-7.981-7.523-1.568-3.492-1.683-7.385-.322-10.963 1.562-4.11 4.871-7.232 9.079-8.565.711-.225 1.488-.037 2.017.491l15.464 15.433c.526.525.718 1.299.497 2.009l-.048.156c-.066.218-.134.436-.216.652-2.104 5.533-7.488 9.248-13.401 9.248zm-4.211-23.758c-2.507 1.115-4.458 3.162-5.443 5.753-.98 2.58-.897 5.386.233 7.903s3.174 4.443 5.754 5.423c1.182.45 2.416.677 3.667.677 4.07 0 7.794-2.442 9.44-6.133z"/></svg>